<?xml version="1.0" encoding="utf-8"?>
<!-- Generator: Adobe Illustrator 23.1.1, SVG Export Plug-In . SVG Version: 6.00 Build 0)  -->
<svg version="1.1" id="Layer_1" xmlns="http://www.w3.org/2000/svg" xmlns:xlink="http://www.w3.org/1999/xlink" x="0px" y="0px"
	 viewBox="0 0 64 64" style="enable-background:new 0 0 64 64;" xml:space="preserve">
<style type="text/css">
	.st0{fill:#D7E0E5;}
	.st1{fill:#B9C6CE;}
</style>
<g>
	<rect x="11" y="7" class="st0" width="42" height="30"/>
</g>
<g>
	<path class="st1" d="M52,8c0.39,0,0.71,0.32,0.71,0.71v46.58c0,0.39-0.32,0.71-0.71,0.71H12c-0.39,0-0.71-0.32-0.71-0.71V8.71
		C11.29,8.32,11.61,8,12,8H52 M52,7H12c-0.94,0-1.71,0.77-1.71,1.71v46.58c0,0.94,0.77,1.71,1.71,1.71h40
		c0.94,0,1.71-0.77,1.71-1.71V8.71C53.71,7.77,52.95,7,52,7L52,7z"/>
</g>
<g>
	<g>
		<rect x="11" y="36" class="st1" width="42" height="1"/>
	</g>
</g>
<g>
	<path class="st1" d="M45,21.12h-4.16l-4.56-4.56l-4.56,4.56h-7.34l7.54-7.54l1.84,1.84l0.68-0.68l-2.52-2.52l-8.91,8.91h-4.16v0.97
		h4.16L31.93,31l8.91-8.91H45V21.12z M36.29,17.93l3.19,3.19H33.1L36.29,17.93z M31.93,29.63l-7.54-7.54h15.09L31.93,29.63z"/>
</g>
<g>
	<g>
		<path class="st1" d="M42,45.5H16c-0.28,0-0.5-0.22-0.5-0.5s0.22-0.5,0.5-0.5h26c0.28,0,0.5,0.22,0.5,0.5S42.28,45.5,42,45.5z"/>
	</g>
</g>
<g>
	<g>
		<path class="st1" d="M29,49H16c-0.28,0-0.5-0.22-0.5-0.5S15.72,48,16,48h13c0.28,0,0.5,0.22,0.5,0.5S29.28,49,29,49z"/>
	</g>
</g>
<g>
	<g>
		<rect x="8" y="30.5" class="st1" width="6" height="1"/>
	</g>
</g>
<g>
	<g>
		<rect x="2" y="28" class="st1" width="6" height="1"/>
	</g>
</g>
<g>
	<g>
		<rect x="55" y="13" class="st1" width="6" height="1"/>
	</g>
</g>
<g>
	<g>
		<rect x="50" y="15" class="st1" width="6" height="1"/>
	</g>
</g>
<g>
	<path class="st1" d="M57,33c-1.1,0-2-0.9-2-2s0.9-2,2-2s2,0.9,2,2S58.1,33,57,33z M57,30c-0.55,0-1,0.45-1,1s0.45,1,1,1s1-0.45,1-1
		S57.55,30,57,30z"/>
</g>
<g>
	<g>
		<path class="st1" d="M7,14c-1.1,0-2-0.9-2-2s0.9-2,2-2s2,0.9,2,2S8.1,14,7,14z M7,11c-0.55,0-1,0.45-1,1s0.45,1,1,1s1-0.45,1-1
			S7.55,11,7,11z"/>
	</g>
</g>
<g>
	<polygon class="st1" points="53.85,2.85 53.15,2.15 52,3.29 50.85,2.15 50.15,2.85 51.29,4 50.15,5.15 50.85,5.85 52,4.71 
		53.15,5.85 53.85,5.15 52.71,4 	"/>
</g>
</svg>
