<svg id="Layer_1" data-name="Layer 1" xmlns="http://www.w3.org/2000/svg" viewBox="0 0 1200 675"><defs><style>.cls-1{fill:#eef2f4;}.cls-2,.cls-3{fill:none;stroke-miterlimit:10;stroke-width:4px;}.cls-2{stroke:#4f5559;}.cls-3{stroke:#f26e6b;}</style></defs><title>7gestalt</title><rect class="cls-1" width="1200" height="675"/><line class="cls-2" x1="527.5" y1="369.6" x2="553.5" y2="343.6"/><line class="cls-2" x1="527.5" y1="343.6" x2="553.5" y2="369.6"/><line class="cls-2" x1="527.5" y1="409.8" x2="553.5" y2="383.8"/><line class="cls-2" x1="527.5" y1="383.8" x2="553.5" y2="409.8"/><line class="cls-2" x1="527.5" y1="450" x2="553.5" y2="424"/><line class="cls-2" x1="527.5" y1="424" x2="553.5" y2="450"/><line class="cls-2" x1="527.5" y1="329.4" x2="553.5" y2="303.4"/><line class="cls-2" x1="527.5" y1="303.4" x2="553.5" y2="329.4"/><line class="cls-2" x1="527.5" y1="289.2" x2="553.5" y2="263.2"/><line class="cls-2" x1="527.5" y1="263.2" x2="553.5" y2="289.2"/><line class="cls-2" x1="527.5" y1="249" x2="553.5" y2="223"/><line class="cls-2" x1="527.5" y1="223" x2="553.5" y2="249"/><line class="cls-3" x1="486.5" y1="369.6" x2="512.5" y2="343.6"/><line class="cls-3" x1="486.5" y1="343.6" x2="512.5" y2="369.6"/><line class="cls-3" x1="486.5" y1="409.8" x2="512.5" y2="383.8"/><line class="cls-3" x1="486.5" y1="383.8" x2="512.5" y2="409.8"/><line class="cls-2" x1="486.5" y1="450" x2="512.5" y2="424"/><line class="cls-2" x1="486.5" y1="424" x2="512.5" y2="450"/><line class="cls-2" x1="445.5" y1="369.6" x2="471.5" y2="343.6"/><line class="cls-2" x1="445.5" y1="343.6" x2="471.5" y2="369.6"/><line class="cls-2" x1="445.5" y1="409.8" x2="471.5" y2="383.8"/><line class="cls-2" x1="445.5" y1="383.8" x2="471.5" y2="409.8"/><line class="cls-2" x1="445.5" y1="450" x2="471.5" y2="424"/><line class="cls-2" x1="445.5" y1="424" x2="471.5" y2="450"/><line class="cls-2" x1="405.5" y1="450" x2="431.5" y2="424"/><line class="cls-2" x1="405.5" y1="424" x2="431.5" y2="450"/><line class="cls-2" x1="486.5" y1="329.4" x2="512.5" y2="303.4"/><line class="cls-2" x1="486.5" y1="303.4" x2="512.5" y2="329.4"/><line class="cls-2" x1="672.5" y1="369.6" x2="646.5" y2="343.6"/><line class="cls-2" x1="672.5" y1="343.6" x2="646.5" y2="369.6"/><line class="cls-2" x1="672.5" y1="409.8" x2="646.5" y2="383.8"/><line class="cls-2" x1="672.5" y1="383.8" x2="646.5" y2="409.8"/><line class="cls-2" x1="672.5" y1="450" x2="646.5" y2="424"/><line class="cls-2" x1="672.5" y1="424" x2="646.5" y2="450"/><line class="cls-2" x1="672.5" y1="329.4" x2="646.5" y2="303.4"/><line class="cls-2" x1="672.5" y1="303.4" x2="646.5" y2="329.4"/><line class="cls-2" x1="672.5" y1="289.2" x2="646.5" y2="263.2"/><line class="cls-2" x1="672.5" y1="263.2" x2="646.5" y2="289.2"/><line class="cls-2" x1="672.5" y1="249" x2="646.5" y2="223"/><line class="cls-2" x1="672.5" y1="223" x2="646.5" y2="249"/><line class="cls-3" x1="713.5" y1="369.6" x2="687.5" y2="343.6"/><line class="cls-3" x1="713.5" y1="343.6" x2="687.5" y2="369.6"/><line class="cls-3" x1="713.5" y1="409.8" x2="687.5" y2="383.8"/><line class="cls-3" x1="713.5" y1="383.8" x2="687.5" y2="409.8"/><line class="cls-2" x1="713.5" y1="450" x2="687.5" y2="424"/><line class="cls-2" x1="713.5" y1="424" x2="687.5" y2="450"/><line class="cls-2" x1="754.5" y1="369.6" x2="728.5" y2="343.6"/><line class="cls-2" x1="754.5" y1="343.6" x2="728.5" y2="369.6"/><line class="cls-2" x1="754.5" y1="409.8" x2="728.5" y2="383.8"/><line class="cls-2" x1="754.5" y1="383.8" x2="728.5" y2="409.8"/><line class="cls-2" x1="754.5" y1="450" x2="728.5" y2="424"/><line class="cls-2" x1="754.5" y1="424" x2="728.5" y2="450"/><line class="cls-2" x1="794.5" y1="450" x2="768.5" y2="424"/><line class="cls-2" x1="794.5" y1="424" x2="768.5" y2="450"/><line class="cls-2" x1="713.5" y1="329.4" x2="687.5" y2="303.4"/><line class="cls-2" x1="713.5" y1="303.4" x2="687.5" y2="329.4"/><line class="cls-2" x1="600" y1="186" x2="600" y2="489"/></svg>