<svg id="Layer_1" data-name="Layer 1" xmlns="http://www.w3.org/2000/svg" viewBox="0 0 1200 675"><defs><style>.cls-1{fill:#eef2f4;}.cls-2{fill:#4f5559;}.cls-3{fill:#f26e6b;stroke:#f26e6b;stroke-miterlimit:10;stroke-width:4px;}</style></defs><title>7gestalt</title><rect class="cls-1" width="1200" height="675"/><rect class="cls-2" x="449.74" y="185.08" width="13.96" height="13.96" rx="3"/><rect class="cls-2" x="504.65" y="185.08" width="13.96" height="13.96" rx="3"/><rect class="cls-2" x="559.56" y="185.08" width="13.96" height="13.96" rx="3"/><rect class="cls-2" x="614.48" y="185.08" width="13.96" height="13.96" rx="3"/><rect class="cls-2" x="669.39" y="185.08" width="13.96" height="13.96" rx="3"/><rect class="cls-2" x="724.3" y="185.08" width="13.96" height="13.96" rx="3"/><rect class="cls-2" x="449.74" y="239.06" width="13.96" height="13.96" rx="3"/><rect class="cls-2" x="504.65" y="239.06" width="13.96" height="13.96" rx="3"/><rect class="cls-2" x="559.56" y="239.06" width="13.96" height="13.96" rx="3"/><rect class="cls-2" x="614.48" y="239.06" width="13.96" height="13.96" rx="3"/><rect class="cls-2" x="669.39" y="239.06" width="13.96" height="13.96" rx="3"/><rect class="cls-2" x="724.3" y="239.06" width="13.96" height="13.96" rx="3"/><rect class="cls-2" x="449.74" y="293.04" width="13.96" height="13.96" rx="3"/><rect class="cls-2" x="504.65" y="293.04" width="13.96" height="13.96" rx="3"/><rect class="cls-2" x="559.56" y="293.04" width="13.96" height="13.96" rx="3"/><rect class="cls-2" x="614.48" y="293.04" width="13.96" height="13.96" rx="3"/><rect class="cls-2" x="669.39" y="293.04" width="13.96" height="13.96" rx="3"/><rect class="cls-2" x="724.3" y="293.04" width="13.96" height="13.96" rx="3"/><rect class="cls-2" x="449.74" y="347.03" width="13.96" height="13.96" rx="3"/><rect class="cls-2" x="504.65" y="347.03" width="13.96" height="13.96" rx="3"/><rect class="cls-2" x="559.56" y="347.03" width="13.96" height="13.96" rx="3"/><rect class="cls-2" x="614.48" y="347.03" width="13.96" height="13.96" rx="3"/><rect class="cls-2" x="669.39" y="347.03" width="13.96" height="13.96" rx="3"/><rect class="cls-2" x="724.3" y="347.03" width="13.96" height="13.96" rx="3"/><rect class="cls-2" x="449.74" y="401.01" width="13.96" height="13.96" rx="3"/><rect class="cls-2" x="504.65" y="401.01" width="13.96" height="13.96" rx="3"/><rect class="cls-2" x="559.56" y="401.01" width="13.96" height="13.96" rx="3"/><rect class="cls-2" x="614.48" y="401.01" width="13.96" height="13.96" rx="3"/><rect class="cls-2" x="669.39" y="401.01" width="13.96" height="13.96" rx="3"/><rect class="cls-2" x="724.3" y="401.01" width="13.96" height="13.96" rx="3"/><rect class="cls-2" x="449.74" y="454.99" width="13.96" height="13.96" rx="3"/><rect class="cls-2" x="504.65" y="454.99" width="13.96" height="13.96" rx="3"/><rect class="cls-2" x="559.56" y="454.99" width="13.96" height="13.96" rx="3"/><rect class="cls-2" x="614.48" y="454.99" width="13.96" height="13.96" rx="3"/><rect class="cls-2" x="669.39" y="454.99" width="13.96" height="13.96" rx="3"/><rect class="cls-2" x="724.3" y="454.99" width="13.96" height="13.96" rx="3"/><circle class="cls-3" cx="511.54" cy="245.41" r="15.46"/><circle class="cls-3" cx="675.54" cy="409.49" r="15.46"/><circle class="cls-3" cx="730.46" cy="299.49" r="15.46"/></svg>