<svg id="Layer_1" data-name="Layer 1" xmlns="http://www.w3.org/2000/svg" viewBox="0 0 1200 675"><defs><style>.cls-1{fill:#eef2f4;}.cls-2,.cls-3{fill:none;stroke-miterlimit:10;stroke-width:4px;}.cls-2{stroke:#363a3d;}.cls-3{stroke:#f26e6b;}</style></defs><title>7gestalt</title><rect class="cls-1" width="1200" height="675"/><polyline class="cls-2" points="964.12 349.9 981.09 332.93 964.12 315.96"/><line class="cls-2" x1="980.73" y1="332.93" x2="935.48" y2="332.93"/><polyline class="cls-2" points="916.73 295.96 933.7 278.99 916.73 262.02"/><line class="cls-2" x1="933.34" y1="278.99" x2="888.09" y2="278.99"/><polyline class="cls-2" points="916.73 403.96 933.7 386.99 916.73 370.02"/><line class="cls-2" x1="933.34" y1="386.99" x2="888.09" y2="386.99"/><polyline class="cls-2" points="875.73 455.9 892.7 438.93 875.73 421.96"/><line class="cls-2" x1="892.34" y1="438.93" x2="847.09" y2="438.93"/><polyline class="cls-2" points="870.12 246.96 887.09 229.99 870.12 213.02"/><line class="cls-2" x1="886.73" y1="229.99" x2="841.48" y2="229.99"/><polyline class="cls-3" points="420.12 349.9 437.09 332.93 420.12 315.96"/><line class="cls-3" x1="436.73" y1="332.93" x2="391.48" y2="332.93"/><polyline class="cls-3" points="372.73 295.96 389.7 278.99 372.73 262.02"/><line class="cls-3" x1="389.34" y1="278.99" x2="344.09" y2="278.99"/><polyline class="cls-3" points="372.73 403.96 389.7 386.99 372.73 370.02"/><line class="cls-3" x1="389.34" y1="386.99" x2="344.09" y2="386.99"/><polyline class="cls-3" points="331.73 455.9 348.7 438.93 331.73 421.96"/><line class="cls-3" x1="348.34" y1="438.93" x2="303.09" y2="438.93"/><polyline class="cls-3" points="326.12 246.96 343.09 229.99 326.12 213.02"/><line class="cls-3" x1="342.73" y1="229.99" x2="297.48" y2="229.99"/></svg>