<svg id="Layer_1" data-name="Layer 1" xmlns="http://www.w3.org/2000/svg" viewBox="0 0 1200 675"><defs><style>.cls-1{fill:#eef2f4;}.cls-2,.cls-3{fill:none;stroke-miterlimit:10;stroke-width:4px;}.cls-2{stroke:#4f5559;}.cls-3{stroke:#f26e6b;}</style></defs><title>7gestalt</title><rect class="cls-1" width="1200" height="675"/><circle class="cls-2" cx="432.95" cy="375.16" r="18.46"/><circle class="cls-3" cx="432.95" cy="428.47" r="18.46"/><circle class="cls-2" cx="432.95" cy="268.55" r="18.46"/><circle class="cls-2" cx="432.95" cy="321.86" r="18.46"/><circle class="cls-2" cx="380.95" cy="375.16" r="18.46"/><circle class="cls-2" cx="380.95" cy="428.47" r="18.46"/><circle class="cls-2" cx="380.95" cy="268.55" r="18.46"/><circle class="cls-3" cx="380.95" cy="321.86" r="18.46"/><circle class="cls-2" cx="329.02" cy="375.16" r="18.46"/><circle class="cls-2" cx="329.02" cy="428.47" r="18.46"/><circle class="cls-2" cx="329.02" cy="268.55" r="18.46"/><circle class="cls-2" cx="329.02" cy="321.86" r="18.46"/><circle class="cls-2" cx="815.79" cy="315.7" r="18.46"/><circle class="cls-2" cx="869.1" cy="315.7" r="18.46"/><circle class="cls-3" cx="709.18" cy="315.7" r="18.46"/><circle class="cls-2" cx="762.49" cy="315.7" r="18.46"/><circle class="cls-3" cx="815.79" cy="367.63" r="18.46"/><circle class="cls-2" cx="869.1" cy="367.63" r="18.46"/><circle class="cls-2" cx="709.18" cy="367.63" r="18.46"/><circle class="cls-2" cx="762.49" cy="367.63" r="18.46"/></svg>