<svg id="Layer_1" data-name="Layer 1" xmlns="http://www.w3.org/2000/svg" viewBox="0 0 1200 675"><defs><style>.cls-1{fill:#eef2f4;}.cls-2,.cls-3{fill:none;stroke-miterlimit:10;stroke-width:4px;}.cls-2{stroke:#4f5559;}.cls-3{stroke:#f26e6b;}</style></defs><title>7gestalt</title><rect class="cls-1" width="1200" height="675"/><polyline class="cls-2" points="358 252.09 358 244.09 358 221.09 380 221.09"/><line class="cls-2" x1="358" y1="356.09" x2="358" y2="295.09"/><polyline class="cls-2" points="381 460.09 358 460.09 358 426.09 358 381.09"/><line class="cls-2" x1="412" y1="460.09" x2="401" y2="460.09"/><line class="cls-2" x1="505" y1="460.09" x2="436" y2="460.09"/><line class="cls-2" x1="558" y1="460.09" x2="539" y2="460.09"/><polyline class="cls-2" points="597 438.09 597 460.09 580 460.09"/><line class="cls-2" x1="597" y1="292.09" x2="597" y2="395.09"/><polyline class="cls-2" points="589 221.09 597 221.09 597 233.09 597 243.09"/><line class="cls-2" x1="496" y1="221.09" x2="552" y2="221.09"/><polyline class="cls-2" points="392 221.09 438 221.09 451 221.09"/><path class="cls-3" d="M632,384.09a119.57,119.57,0,0,1-2.15-80q1.33-4.06,2.94-8a119,119,0,0,1,17.8-30"/><path class="cls-3" d="M675,438.76c-3.11-2.17-6.12-4.49-9-6.94a119.74,119.74,0,0,1-18.51-19.73c-1.92-2.59-3.75-5.26-5.46-8"/><path class="cls-3" d="M833.73,418.09q-3.08,3.63-6.44,7A119.12,119.12,0,0,1,725,458.73a116.66,116.66,0,0,1-15-3.28"/><path class="cls-3" d="M854.38,299.09c1.11,2.94,2.11,5.94,3,9a119.4,119.4,0,0,1-4.16,78"/><path class="cls-3" d="M795,234a119.39,119.39,0,0,1,36.1,27.07c1.19,1.3,2.34,2.64,3.47,4"/><path class="cls-3" d="M710,226.72a120,120,0,0,1,57-2.21c2,.41,4,.88,6,1.39"/><path class="cls-3" d="M680,240.11a118,118,0,0,1,16-8.38"/></svg>